# xmcd CD database file
#
# Track frame offsets:
#	183
#	14918
#	36870
#	46923
#	60090
#	77640
#	89943
#	101688
#	113033
#	124955
#	142793
#	152703
#
# Disc length: 2224 seconds
#
# Revision: 0
# Processed by: cddbd v1.5.2PL0 Copyright (c) Steve Scherf et al.
# Submitted via: CDex 1.51
#
DISCID=9b08ae0c
DTITLE=_various - Rare Brazil
DYEAR=1995
DGENRE=Salsa
TTITLE0=Osmar Milito - Maracatu Atomico
TTITLE1=Leny Andrade - Estamos Ai
TTITLE2=Eumir Deodato - Ataque
TTITLE3=Trio Mocoto - O Xamego De Ina
TTITLE4=Sivuca/Rosinha De Valenca - Adeus Maria Fulo
TTITLE5=Dom Um Romao - Communic Ritmo
TTITLE6=Os Ipanemas - Garota De Ipanema
TTITLE7=Elza Soares/Wilson Das Neves - Deixe Isto Pra La
TTITLE8=Edson Machado - Nana
TTITLE9=Dom Salvador - O Rio
TTITLE10=Ivan Lins - Madalena
TTITLE11=Vimana - Zebra
EXTD=YEAR: 1995
EXTT0=
EXTT1=
EXTT2=
EXTT3=
EXTT4=
EXTT5=
EXTT6=
EXTT7=
EXTT8=
EXTT9=
EXTT10=
EXTT11=
PLAYORDER=
